<?xml version="1.0" encoding="UTF-8" standalone="no"?>
<!DOCTYPE svg PUBLIC "-//W3C//DTD SVG 1.1//EN"
 "http://www.w3.org/Graphics/SVG/1.1/DTD/svg11.dtd">
<!-- Generated by graphviz version 2.47.0 (20210316.0004)
 -->
<!-- Title: dependencies Pages: 1 -->
<svg width="2060pt" height="284pt"
 viewBox="0.00 0.00 2060.00 284.00" xmlns="http://www.w3.org/2000/svg" xmlns:xlink="http://www.w3.org/1999/xlink">
<g id="graph0" class="graph" transform="scale(1 1) rotate(0) translate(4 280)">
<title>dependencies</title>
<polygon fill="white" stroke="transparent" points="-4,4 -4,-280 2056,-280 2056,4 -4,4"/>
<text text-anchor="start" x="1005.01" y="-42.4" font-family="sans-serif" font-weight="bold" font-size="14.00">Legend</text>
<polygon fill="#ffffb3" stroke="transparent" points="792,-10 792,-30 812,-30 812,-10 792,-10"/>
<text text-anchor="start" x="815.63" y="-15.4" font-family="sans-serif" font-size="14.00"> &#160;Declarations</text>
<polygon fill="#8dd3c7" stroke="transparent" points="905,-10 905,-30 925,-30 925,-10 905,-10"/>
<text text-anchor="start" x="928.73" y="-15.4" font-family="sans-serif" font-size="14.00"> &#160;Module</text>
<polygon fill="#80b1d3" stroke="transparent" points="991,-10 991,-30 1011,-30 1011,-10 991,-10"/>
<text text-anchor="start" x="1014.78" y="-15.4" font-family="sans-serif" font-size="14.00"> &#160;Bootstrap</text>
<polygon fill="#fdb462" stroke="transparent" points="1088,-10 1088,-30 1108,-30 1108,-10 1088,-10"/>
<text text-anchor="start" x="1111.67" y="-15.4" font-family="sans-serif" font-size="14.00"> &#160;Providers</text>
<polygon fill="#fb8072" stroke="transparent" points="1184,-10 1184,-30 1204,-30 1204,-10 1184,-10"/>
<text text-anchor="start" x="1207.73" y="-15.4" font-family="sans-serif" font-size="14.00"> &#160;Exports</text>
<g id="clust1" class="cluster">
<title>cluster_AppModule</title>
<polygon fill="none" stroke="black" stroke-dasharray="1,5" points="8,-70 8,-268 2044,-268 2044,-70 8,-70"/>
</g>
<g id="clust2" class="cluster">
<title>cluster_AppModule_declarations</title>
<polygon fill="none" stroke="black" points="168,-78 168,-130 2036,-130 2036,-78 168,-78"/>
</g>
<g id="clust16" class="cluster">
<title>cluster_AppModule_imports</title>
<polygon fill="none" stroke="black" points="16,-78 16,-130 160,-130 160,-78 16,-78"/>
</g>
<g id="clust18" class="cluster">
<title>cluster_AppModule_bootstrap</title>
<polygon fill="none" stroke="black" points="1027,-208 1027,-260 1151,-260 1151,-208 1027,-208"/>
</g>
<!-- AlertsComponent -->
<g id="node1" class="node">
<title>AlertsComponent</title>
<polygon fill="#ffffb3" stroke="black" points="2027.54,-122 1912.46,-122 1912.46,-86 2027.54,-86 2027.54,-122"/>
<text text-anchor="middle" x="1970" y="-99.8" font-family="Times,serif" font-size="14.00">AlertsComponent</text>
</g>
<!-- AppModule -->
<g id="node14" class="node">
<title>AppModule</title>
<polygon fill="#8dd3c7" stroke="black" points="1130.66,-187 1127.66,-191 1106.66,-191 1103.66,-187 1047.34,-187 1047.34,-151 1130.66,-151 1130.66,-187"/>
<text text-anchor="middle" x="1089" y="-164.8" font-family="Times,serif" font-size="14.00">AppModule</text>
</g>
<!-- AlertsComponent&#45;&gt;AppModule -->
<g id="edge1" class="edge">
<title>AlertsComponent&#45;&gt;AppModule</title>
<path fill="none" stroke="black" d="M1970,-122.09C1970,-145.13 1970,-182 1970,-182 1970,-182 1140.9,-182 1140.9,-182"/>
<polygon fill="black" stroke="black" points="1140.9,-178.5 1130.9,-182 1140.9,-185.5 1140.9,-178.5"/>
</g>
<!-- AppComponent -->
<g id="node2" class="node">
<title>AppComponent</title>
<polygon fill="#ffffb3" stroke="black" points="1894.94,-122 1789.06,-122 1789.06,-86 1894.94,-86 1894.94,-122"/>
<text text-anchor="middle" x="1842" y="-99.8" font-family="Times,serif" font-size="14.00">AppComponent</text>
</g>
<!-- AppComponent&#45;&gt;AppModule -->
<g id="edge2" class="edge">
<title>AppComponent&#45;&gt;AppModule</title>
<path fill="none" stroke="black" d="M1842,-122.04C1842,-143.66 1842,-177 1842,-177 1842,-177 1140.83,-177 1140.83,-177"/>
<polygon fill="black" stroke="black" points="1140.83,-173.5 1130.83,-177 1140.83,-180.5 1140.83,-173.5"/>
</g>
<!-- FooterComponent -->
<g id="node3" class="node">
<title>FooterComponent</title>
<polygon fill="#ffffb3" stroke="black" points="1770.88,-122 1653.12,-122 1653.12,-86 1770.88,-86 1770.88,-122"/>
<text text-anchor="middle" x="1712" y="-99.8" font-family="Times,serif" font-size="14.00">FooterComponent</text>
</g>
<!-- FooterComponent&#45;&gt;AppModule -->
<g id="edge3" class="edge">
<title>FooterComponent&#45;&gt;AppModule</title>
<path fill="none" stroke="black" d="M1712,-122.22C1712,-142.37 1712,-172 1712,-172 1712,-172 1140.84,-172 1140.84,-172"/>
<polygon fill="black" stroke="black" points="1140.84,-168.5 1130.84,-172 1140.84,-175.5 1140.84,-168.5"/>
</g>
<!-- HomeComponent -->
<g id="node4" class="node">
<title>HomeComponent</title>
<polygon fill="#ffffb3" stroke="black" points="1634.55,-122 1519.45,-122 1519.45,-86 1634.55,-86 1634.55,-122"/>
<text text-anchor="middle" x="1577" y="-99.8" font-family="Times,serif" font-size="14.00">HomeComponent</text>
</g>
<!-- HomeComponent&#45;&gt;AppModule -->
<g id="edge4" class="edge">
<title>HomeComponent&#45;&gt;AppModule</title>
<path fill="none" stroke="black" d="M1577,-122.22C1577,-140.83 1577,-167 1577,-167 1577,-167 1141.03,-167 1141.03,-167"/>
<polygon fill="black" stroke="black" points="1141.03,-163.5 1131.03,-167 1141.03,-170.5 1141.03,-163.5"/>
</g>
<!-- LoginComponent -->
<g id="node5" class="node">
<title>LoginComponent</title>
<polygon fill="#ffffb3" stroke="black" points="1501.28,-122 1386.72,-122 1386.72,-86 1501.28,-86 1501.28,-122"/>
<text text-anchor="middle" x="1444" y="-99.8" font-family="Times,serif" font-size="14.00">LoginComponent</text>
</g>
<!-- LoginComponent&#45;&gt;AppModule -->
<g id="edge5" class="edge">
<title>LoginComponent&#45;&gt;AppModule</title>
<path fill="none" stroke="black" d="M1444,-122.03C1444,-139.06 1444,-162 1444,-162 1444,-162 1140.77,-162 1140.77,-162"/>
<polygon fill="black" stroke="black" points="1140.77,-158.5 1130.77,-162 1140.77,-165.5 1140.77,-158.5"/>
</g>
<!-- MenuComponent -->
<g id="node6" class="node">
<title>MenuComponent</title>
<polygon fill="#ffffb3" stroke="black" points="1368.99,-122 1255.01,-122 1255.01,-86 1368.99,-86 1368.99,-122"/>
<text text-anchor="middle" x="1312" y="-99.8" font-family="Times,serif" font-size="14.00">MenuComponent</text>
</g>
<!-- MenuComponent&#45;&gt;AppModule -->
<g id="edge6" class="edge">
<title>MenuComponent&#45;&gt;AppModule</title>
<path fill="none" stroke="black" d="M1312,-122.24C1312,-137.57 1312,-157 1312,-157 1312,-157 1140.68,-157 1140.68,-157"/>
<polygon fill="black" stroke="black" points="1140.68,-153.5 1130.68,-157 1140.68,-160.5 1140.68,-153.5"/>
</g>
<!-- PostDeleteComponent -->
<g id="node7" class="node">
<title>PostDeleteComponent</title>
<polygon fill="#ffffb3" stroke="black" points="1236.98,-122 1095.02,-122 1095.02,-86 1236.98,-86 1236.98,-122"/>
<text text-anchor="middle" x="1166" y="-99.8" font-family="Times,serif" font-size="14.00">PostDeleteComponent</text>
</g>
<!-- PostDeleteComponent&#45;&gt;AppModule -->
<g id="edge7" class="edge">
<title>PostDeleteComponent&#45;&gt;AppModule</title>
<path fill="none" stroke="black" d="M1112.92,-122.11C1112.92,-122.11 1112.92,-140.99 1112.92,-140.99"/>
<polygon fill="black" stroke="black" points="1109.42,-140.99 1112.92,-150.99 1116.42,-140.99 1109.42,-140.99"/>
</g>
<!-- PostEditComponent -->
<g id="node8" class="node">
<title>PostEditComponent</title>
<polygon fill="#ffffb3" stroke="black" points="1077.28,-122 948.72,-122 948.72,-86 1077.28,-86 1077.28,-122"/>
<text text-anchor="middle" x="1013" y="-99.8" font-family="Times,serif" font-size="14.00">PostEditComponent</text>
</g>
<!-- PostEditComponent&#45;&gt;AppModule -->
<g id="edge8" class="edge">
<title>PostEditComponent&#45;&gt;AppModule</title>
<path fill="none" stroke="black" d="M1062.28,-122.11C1062.28,-122.11 1062.28,-140.99 1062.28,-140.99"/>
<polygon fill="black" stroke="black" points="1058.78,-140.99 1062.28,-150.99 1065.78,-140.99 1058.78,-140.99"/>
</g>
<!-- SignupComponent -->
<g id="node9" class="node">
<title>SignupComponent</title>
<polygon fill="#ffffb3" stroke="black" points="930.51,-122 809.49,-122 809.49,-86 930.51,-86 930.51,-122"/>
<text text-anchor="middle" x="870" y="-99.8" font-family="Times,serif" font-size="14.00">SignupComponent</text>
</g>
<!-- SignupComponent&#45;&gt;AppModule -->
<g id="edge9" class="edge">
<title>SignupComponent&#45;&gt;AppModule</title>
<path fill="none" stroke="black" d="M870,-122.24C870,-137.57 870,-157 870,-157 870,-157 1037.29,-157 1037.29,-157"/>
<polygon fill="black" stroke="black" points="1037.29,-160.5 1047.29,-157 1037.29,-153.5 1037.29,-160.5"/>
</g>
<!-- SubjectComponent -->
<g id="node10" class="node">
<title>SubjectComponent</title>
<polygon fill="#ffffb3" stroke="black" points="791.83,-122 668.17,-122 668.17,-86 791.83,-86 791.83,-122"/>
<text text-anchor="middle" x="730" y="-99.8" font-family="Times,serif" font-size="14.00">SubjectComponent</text>
</g>
<!-- SubjectComponent&#45;&gt;AppModule -->
<g id="edge10" class="edge">
<title>SubjectComponent&#45;&gt;AppModule</title>
<path fill="none" stroke="black" d="M730,-122.03C730,-139.06 730,-162 730,-162 730,-162 1037.12,-162 1037.12,-162"/>
<polygon fill="black" stroke="black" points="1037.12,-165.5 1047.12,-162 1037.12,-158.5 1037.12,-165.5"/>
</g>
<!-- SubjectDeleteComponent -->
<g id="node11" class="node">
<title>SubjectDeleteComponent</title>
<polygon fill="#ffffb3" stroke="black" points="649.86,-122 490.14,-122 490.14,-86 649.86,-86 649.86,-122"/>
<text text-anchor="middle" x="570" y="-99.8" font-family="Times,serif" font-size="14.00">SubjectDeleteComponent</text>
</g>
<!-- SubjectDeleteComponent&#45;&gt;AppModule -->
<g id="edge11" class="edge">
<title>SubjectDeleteComponent&#45;&gt;AppModule</title>
<path fill="none" stroke="black" d="M570,-122.22C570,-140.83 570,-167 570,-167 570,-167 1036.97,-167 1036.97,-167"/>
<polygon fill="black" stroke="black" points="1036.97,-170.5 1046.97,-167 1036.97,-163.5 1036.97,-170.5"/>
</g>
<!-- SubjectEditComponent -->
<g id="node12" class="node">
<title>SubjectEditComponent</title>
<polygon fill="#ffffb3" stroke="black" points="472.16,-122 325.84,-122 325.84,-86 472.16,-86 472.16,-122"/>
<text text-anchor="middle" x="399" y="-99.8" font-family="Times,serif" font-size="14.00">SubjectEditComponent</text>
</g>
<!-- SubjectEditComponent&#45;&gt;AppModule -->
<g id="edge12" class="edge">
<title>SubjectEditComponent&#45;&gt;AppModule</title>
<path fill="none" stroke="black" d="M399,-122.22C399,-142.37 399,-172 399,-172 399,-172 1037.13,-172 1037.13,-172"/>
<polygon fill="black" stroke="black" points="1037.13,-175.5 1047.13,-172 1037.13,-168.5 1037.13,-175.5"/>
</g>
<!-- UserEditComponent -->
<g id="node13" class="node">
<title>UserEditComponent</title>
<polygon fill="#ffffb3" stroke="black" points="307.59,-122 176.41,-122 176.41,-86 307.59,-86 307.59,-122"/>
<text text-anchor="middle" x="242" y="-99.8" font-family="Times,serif" font-size="14.00">UserEditComponent</text>
</g>
<!-- UserEditComponent&#45;&gt;AppModule -->
<g id="edge13" class="edge">
<title>UserEditComponent&#45;&gt;AppModule</title>
<path fill="none" stroke="black" d="M242,-122.04C242,-143.66 242,-177 242,-177 242,-177 1037.29,-177 1037.29,-177"/>
<polygon fill="black" stroke="black" points="1037.29,-180.5 1047.29,-177 1037.29,-173.5 1037.29,-180.5"/>
</g>
<!-- AppComponent  -->
<g id="node16" class="node">
<title>AppComponent </title>
<polygon fill="#80b1d3" stroke="black" points="1143.44,-252 1034.56,-252 1034.56,-216 1143.44,-216 1143.44,-252"/>
<text text-anchor="middle" x="1089" y="-229.8" font-family="Times,serif" font-size="14.00">AppComponent </text>
</g>
<!-- AppModule&#45;&gt;AppComponent  -->
<g id="edge15" class="edge">
<title>AppModule&#45;&gt;AppComponent </title>
<path fill="none" stroke="black" stroke-dasharray="1,5" d="M1089,-187.11C1089,-187.11 1089,-205.99 1089,-205.99"/>
<polygon fill="black" stroke="black" points="1085.5,-205.99 1089,-215.99 1092.5,-205.99 1085.5,-205.99"/>
</g>
<!-- AppRoutingModule -->
<g id="node15" class="node">
<title>AppRoutingModule</title>
<polygon fill="#8dd3c7" stroke="black" points="152.27,-122 149.27,-126 128.27,-126 125.27,-122 23.73,-122 23.73,-86 152.27,-86 152.27,-122"/>
<text text-anchor="middle" x="88" y="-99.8" font-family="Times,serif" font-size="14.00">AppRoutingModule</text>
</g>
<!-- AppRoutingModule&#45;&gt;AppModule -->
<g id="edge14" class="edge">
<title>AppRoutingModule&#45;&gt;AppModule</title>
<path fill="none" stroke="black" d="M88,-122.09C88,-145.13 88,-182 88,-182 88,-182 1037.26,-182 1037.26,-182"/>
<polygon fill="black" stroke="black" points="1037.26,-185.5 1047.26,-182 1037.26,-178.5 1037.26,-185.5"/>
</g>
</g>
</svg>
